<svg width="32" height="32" viewBox="0 0 32 32" fill="none"
    xmlns="http://www.w3.org/2000/svg">
    <path class="color-primary" fill-rule="evenodd" clip-rule="evenodd" d="M32 11.7334C31.7557 11.2264 31.4703 10.7404 31.1466 10.28C30.6933 9.58669 30.1466 8.80002 29.8133 8.42669C29.1466 7.62669 28.48 6.90669 27.88 6.22669C27.1946 5.5222 26.4642 4.86303 25.6933 4.25336C25.1125 3.77169 24.5024 3.3264 23.8666 2.92002C23.0039 2.38509 22.1138 1.89554 21.2 1.45336C21.1132 1.25244 20.9753 1.07776 20.8 0.946691C20.5675 0.778345 20.287 0.689499 20 0.693358C19.5733 0.693358 18.88 0.826691 18.6666 0.840025L14.6666 1.01336C13.8533 1.01336 13 1.01336 12.16 1.12002C11.7066 1.12002 11.28 1.21336 10.8266 1.29336C10.7674 1.26067 10.7009 1.24353 10.6333 1.24353C10.5657 1.24353 10.4992 1.26067 10.44 1.29336C9.33939 1.77187 8.28592 2.35217 7.29331 3.02669C5.95998 3.98669 4.62664 5.04002 3.05331 6.22669C2.66664 6.56002 1.62664 7.09336 0.959976 7.68002C0.569636 7.99855 0.274426 8.41831 0.106643 8.89336C-0.0491849 9.52271 -0.0260949 10.1831 0.17331 10.8C0.575456 11.9389 1.05663 13.0482 1.61331 14.12L2.94664 16.72C3.0582 17.0635 3.20568 17.3942 3.38664 17.7067C3.54196 17.9435 3.77943 18.1145 4.05331 18.1867C4.39036 18.2637 4.74259 18.2406 5.06664 18.12C5.42559 17.9819 5.76958 17.8077 6.09331 17.6L7.30664 16.7734L8.37331 16C8.46664 17.6134 8.51998 19.24 8.51998 20.8667C8.51998 22.76 8.51998 24.64 8.35998 26.52C8.35998 27.24 8.14664 29 8.10664 29.76C8.04023 30.0716 8.09761 30.3967 8.26664 30.6667C8.5413 30.9304 8.88227 31.1147 9.25331 31.2C9.91181 31.2992 10.5815 31.2992 11.24 31.2L15.16 31.2667L20.2533 31.16C20.7066 31.16 21.5066 31.28 22.1733 31.24C22.5723 31.2326 22.9627 31.1224 23.3066 30.92C23.548 30.7359 23.7502 30.5054 23.9013 30.2421C24.0524 29.9788 24.1494 29.688 24.1866 29.3867C24.2872 28.3625 24.2872 27.3309 24.1866 26.3067L23.8533 18.6667C23.8533 18.0534 23.7866 17.3334 23.6933 16.5467L23.6133 16C24.1774 16.5703 24.7885 17.0921 25.44 17.56C25.7131 17.7376 26.0185 17.8596 26.3388 17.9191C26.6591 17.9785 26.988 17.9743 27.3066 17.9067C27.5141 17.8302 27.7011 17.7071 27.8533 17.5467C28.4 17.04 29.5066 15.76 30 15.4C30.68 14.8146 31.253 14.1153 31.6933 13.3334C31.9952 12.8584 32.1049 12.2863 32 11.7334ZM30.48 12.3734C30.3809 12.645 30.2512 12.9045 30.0933 13.1467C29.8513 13.5773 29.5507 13.9722 29.2 14.32C28.9092 14.5755 28.6374 14.8518 28.3866 15.1467C27.96 15.6534 27.48 16.2534 27.1466 16.6267C27.0666 16.7067 26.9333 16.76 26.9333 16.8134C26.6228 16.8582 26.3065 16.7921 26.04 16.6267C25.0133 16.0934 24.0933 14.9467 23.1333 14.5867C23.0782 14.5626 23.0189 14.5496 22.9587 14.5487C22.8986 14.5477 22.8389 14.5587 22.783 14.581C22.7272 14.6034 22.6764 14.6366 22.6335 14.6788C22.5906 14.7209 22.5566 14.7712 22.5333 14.8267C22.5039 14.8869 22.4886 14.953 22.4886 15.02C22.4886 15.087 22.5039 15.1532 22.5333 15.2134C22.5206 15.2704 22.5206 15.3296 22.5333 15.3867C22.6547 15.8216 22.7263 16.2689 22.7466 16.72C22.8133 17.44 22.8133 18.1867 22.84 18.7867V26.4267C22.8938 27.2347 22.8938 28.0454 22.84 28.8534C22.84 29.2667 22.7333 29.64 22.48 29.8134C22.2753 29.8875 22.0556 29.9104 21.84 29.88C21.2533 29.88 20.6 29.7467 20.2133 29.7467L15.0533 29.8134C13.88 29.8134 13.2266 29.8134 12.3866 29.7467H11.1333C10.7444 29.7976 10.3522 29.8199 9.95998 29.8134C9.79295 29.8192 9.62614 29.7966 9.46664 29.7467C9.46664 28.9467 9.58664 27.2534 9.59998 26.56C9.59998 24.6667 9.59998 22.76 9.49331 20.8534C9.38664 18.9467 9.33331 17.0267 9.06664 15.1467C9.07362 15.107 9.07362 15.0664 9.06664 15.0267C8.98678 14.964 8.88818 14.9299 8.78664 14.9299C8.6851 14.9299 8.5865 14.964 8.50664 15.0267L6.66664 16L5.49331 16.7067C5.25898 16.8257 5.01866 16.9325 4.77331 17.0267C4.64824 17.0848 4.51111 17.1122 4.37331 17.1067C4.54664 16.9334 4.14664 16.5334 4.07998 16.3334L2.95998 13.6667C2.69331 12.9734 2.13331 11.9334 1.78664 10.92C1.55134 10.4263 1.48121 9.87 1.58664 9.33336C1.72827 9.03811 1.95004 8.78862 2.22664 8.61336C2.83998 8.10669 3.55998 7.64003 3.95998 7.28003C5.43998 5.94669 6.62664 4.85336 7.95998 3.82669C8.77436 3.18054 9.63937 2.6009 10.5466 2.09336C10.5466 2.09336 12 2.04002 12.16 2.04002C12.9866 2.04002 13.8133 2.04002 14.6 2.12002C14.6 2.12002 19.0933 2.05336 20.3066 2.12002C20.8533 2.45336 22.3066 3.20002 22.8266 3.56002C23.556 4.04879 24.2469 4.5926 24.8933 5.18669C25.4666 5.72002 25.9733 6.25336 26.4533 6.78669C27.1866 7.61336 27.8533 8.45336 28.6 9.45336L30.48 12.24C30.48 12.24 30.4533 12.2934 30.4266 12.3734H30.48Z" fill="#020202"/>
    <path class="color-secondary" fill-rule="evenodd" clip-rule="evenodd" d="M13.72 7.1734C14.0769 7.23529 14.4379 7.27095 14.8 7.28007C15.3124 7.27555 15.8242 7.24439 16.3333 7.18673C16.9213 7.14602 17.5028 7.03866 18.0666 6.86673C18.4841 6.73926 18.8765 6.5408 19.2266 6.28007C19.778 5.86735 20.233 5.33958 20.56 4.7334C20.8289 4.26866 20.9585 3.7364 20.9333 3.20007C20.9687 3.03387 20.9366 2.86042 20.8441 2.71789C20.7515 2.57537 20.6062 2.47543 20.44 2.44007C20.2738 2.40471 20.1003 2.43682 19.9578 2.52933C19.8153 2.62185 19.7153 2.7672 19.68 2.9334C19.6008 3.30489 19.4514 3.65787 19.24 3.9734C19.0158 4.39621 18.7018 4.76483 18.32 5.0534C18.0361 5.27434 17.7091 5.43332 17.36 5.52007C16.9647 5.64653 16.5585 5.7358 16.1466 5.78673C15.7059 5.87001 15.2607 5.92788 14.8133 5.96007C14.525 5.98672 14.2349 5.98672 13.9466 5.96007C13.6398 5.94323 13.3409 5.85637 13.0728 5.70615C12.8047 5.55592 12.5745 5.34632 12.4 5.0934C11.93 4.37203 11.6841 3.52765 11.6933 2.66673C11.6581 2.55899 11.5868 2.46667 11.4915 2.40531C11.3962 2.34395 11.2826 2.31728 11.17 2.3298C11.0573 2.34232 10.9524 2.39326 10.8728 2.47405C10.7933 2.55484 10.7441 2.66055 10.7333 2.7734C10.6897 3.80145 10.9444 4.82017 11.4666 5.70673C11.7113 6.10186 12.0401 6.43816 12.4296 6.69167C12.819 6.94518 13.2596 7.10967 13.72 7.1734Z" fill="#0C6FFF"/>
</svg>
