<svg width="30" height="30" viewBox="0 0 30 30" fill="none"
    xmlns="http://www.w3.org/2000/svg">
    <style>
        path {
            fill: #000;
        }
        @media (prefers-color-scheme: dark) {
            path {
                fill: #fff;
            }
        }
    </style>
    <path d="M14.8944 17.4301C14.9538 17.8571 15.0075 18.2851 15.0741 18.711C15.1682 19.3127 15.2852 19.9111 15.3686 20.5143C15.5061 21.5095 15.6189 22.5081 15.7536 23.5038C15.813 23.9426 15.9026 24.3772 15.9736 24.8145C15.9895 24.9126 16.0023 25.0167 15.9869 25.1133C15.9081 25.6091 15.8271 26.1048 15.7324 26.5978C15.6501 27.0258 15.492 27.4258 15.2336 27.7822C15.0565 28.0263 14.9588 28.0526 14.6843 27.9236C14.6365 27.9012 14.585 27.8849 14.5337 27.8713C14.3916 27.8336 14.3202 27.739 14.2885 27.5985C14.1623 27.039 14.0284 26.4812 13.9035 25.9214C13.7231 25.1134 13.5417 24.3054 13.3723 23.495C13.2163 22.7485 13.0611 22.0012 12.933 21.2496C12.8388 20.6968 12.7996 20.1348 12.7163 19.5798C12.6076 18.8548 12.48 18.1327 12.3584 17.4097C12.3523 17.3732 12.3258 17.3402 12.3087 17.3055C12.2629 17.3367 12.1991 17.3576 12.1742 17.4008C12.0324 17.6464 11.9065 17.9013 11.763 18.1458C11.0121 19.4257 10.2589 20.7043 9.50228 21.9807C9.41829 22.1224 9.3187 22.2589 9.20606 22.3787C9.01719 22.5796 8.92988 22.8134 8.91423 23.0831C8.90154 23.3019 8.78694 23.4591 8.59967 23.5662C8.42812 23.6644 8.2539 23.6613 8.10056 23.5411C7.98082 23.4473 7.87037 23.3364 7.77511 23.2176C7.52377 22.9041 7.23309 22.6439 6.87382 22.4571C6.55188 22.2896 6.34286 21.8814 6.38098 21.5398C6.39801 21.3871 6.46525 21.2743 6.62977 21.2665C7.19037 21.2397 7.56005 20.9079 7.84454 20.4756C8.04476 20.1713 8.18867 19.8305 8.36567 19.5104C8.52205 19.2275 8.67387 18.9402 8.85503 18.6734C9.31327 17.9986 9.78807 17.335 10.2532 16.6647C10.3334 16.5491 10.4021 16.425 10.4687 16.3007C10.4877 16.2652 10.4986 16.19 10.4814 16.1778C10.4472 16.1535 10.3816 16.1404 10.3453 16.1574C10.0996 16.2729 9.85023 16.3839 9.61675 16.5212C8.46691 17.1979 7.28191 17.8032 6.00963 18.2116C5.53501 18.364 5.02851 18.4147 4.54186 18.5335C4.40887 18.5659 4.28331 18.6635 4.17584 18.7562C4.0699 18.8475 3.99951 18.9789 3.89863 19.0774C3.74469 19.2279 3.60227 19.1947 3.46317 19.0345C3.20474 18.7369 2.94055 18.4425 2.65782 18.1684C2.44024 17.9574 2.26162 17.7318 2.17231 17.4403C2.1568 17.3897 2.14446 17.3334 2.11339 17.2931C1.93534 17.0617 2.01011 16.7967 2.05076 16.5578C2.06862 16.4528 2.24526 16.3439 2.37228 16.294C2.85617 16.1038 3.35218 15.9447 3.83813 15.7594C4.45672 15.5237 5.06349 15.2556 5.6871 15.0345C6.51702 14.7404 7.35598 14.4709 8.19528 14.2042C9.05753 13.9301 9.92478 13.6717 10.79 13.4071C10.9538 13.357 11.1231 13.3218 11.2815 13.2587C11.517 13.1648 11.5328 13.0508 11.3309 12.8923C11.1498 12.7501 10.9561 12.6238 10.7653 12.4944C9.31151 11.5084 7.86123 10.5173 6.39979 9.54282C6.06191 9.31754 5.68651 9.14801 5.32594 8.95742C4.88861 8.72626 4.5696 8.0059 4.70236 7.52643C4.75725 7.3282 4.91866 7.25605 5.10324 7.22588C5.20807 7.20874 5.31564 7.20753 5.41989 7.18799C5.62368 7.14983 5.75418 7.03286 5.81342 6.8271C5.91061 6.48954 6.25675 6.38223 6.58357 6.52316C6.93833 6.67613 7.18699 6.94423 7.46893 7.18476C7.76359 7.43616 8.08618 7.65839 8.41307 7.86759C8.90518 8.18251 9.3497 8.5441 9.71942 9.00022C9.99065 9.33483 10.281 9.65415 10.5675 9.97612C10.7364 10.166 10.9115 10.3507 11.0908 10.5308C11.1287 10.5688 11.1972 10.5765 11.2516 10.5982C11.2621 10.5445 11.2898 10.4877 11.2808 10.4375C11.1019 9.44793 10.9035 8.46163 10.7415 7.46939C10.6205 6.72906 10.536 5.98231 10.453 5.23643C10.3949 4.71399 10.3639 4.18842 10.3265 3.66385C10.3049 3.36162 10.208 3.10817 9.96497 2.90489C9.6974 2.6811 9.56363 2.39098 9.68145 2.03518C9.79879 1.68081 10.1689 1.40251 10.5332 1.37563C10.7509 1.35957 10.9712 1.35128 11.1844 1.30962C11.3731 1.27277 11.5675 1.22022 11.7352 1.12975C12.2109 0.873116 12.4276 1.00221 12.6316 1.47244C12.7327 1.70543 12.7369 1.95915 12.6719 2.22042C12.6301 2.38868 12.6465 2.58269 12.6808 2.75647C12.7728 3.22206 12.9491 3.66434 12.9274 4.15899C12.8704 5.46174 13.1648 6.71454 13.5097 7.96114C13.6511 8.47216 13.7154 9.00504 13.8052 9.52961C13.8659 9.88343 13.9666 10.2348 13.9008 10.6013C13.8929 10.6449 13.9091 10.6958 13.9242 10.7399C13.9698 10.8732 14.0495 10.8928 14.1402 10.7841C14.265 10.6344 14.3888 10.4821 14.4954 10.3193C15.3635 8.99311 16.2218 7.6605 17.0947 6.33745C17.6253 5.53316 18.1843 4.74758 18.7136 3.94241C18.8808 3.68802 18.9934 3.39764 19.1302 3.12332C19.1984 2.98648 19.2468 2.83553 19.3357 2.71412C19.5131 2.47213 19.7691 2.41866 20.0465 2.53339C20.4332 2.69334 20.6679 3.0021 20.828 3.36666C21.0393 3.84768 21.1934 4.35668 21.4367 4.81977C21.5973 5.12573 21.8697 5.37357 22.0959 5.64415C22.1486 5.70712 22.21 5.76866 22.2797 5.81039C22.536 5.96392 22.472 6.34783 22.219 6.49C22.0856 6.56499 21.9453 6.64009 21.7985 6.67454C21.7009 6.69746 21.5742 6.67276 21.4823 6.62629C21.3414 6.55506 21.2187 6.44758 21.0895 6.35391C20.967 6.26519 20.844 6.26791 20.7315 6.36328C20.61 6.46632 20.4877 6.57123 20.3826 6.69024C20.0147 7.1068 19.6584 7.53361 19.289 7.94883C19.0856 8.1775 18.856 8.38297 18.6543 8.61301C18.4015 8.90133 18.1595 9.19969 17.923 9.50169C17.5147 10.0232 17.1136 10.5505 16.711 11.0764C16.6536 11.1514 16.5973 11.229 16.5536 11.3122C16.5233 11.3699 16.5154 11.4392 16.4976 11.5034C16.5638 11.5187 16.6339 11.5565 16.6957 11.546C17.3302 11.4384 17.976 11.3696 18.5941 11.2001C19.8479 10.8561 21.0841 10.4482 22.3322 10.0824C23.281 9.80439 24.2447 9.59315 25.2332 9.50528C25.5209 9.47971 25.8046 9.4102 26.0905 9.36318C26.1662 9.35073 26.2432 9.34277 26.3199 9.33998C26.8255 9.32156 26.9723 9.41879 27.177 9.87694C27.2781 10.1031 27.392 10.3238 27.5084 10.5426C27.7236 10.9475 27.5787 11.3268 27.1356 11.4222C25.6331 11.7457 24.199 12.2863 22.7516 12.7841C21.8514 13.0937 20.9676 13.4537 20.0595 13.7367C19.2932 13.9755 18.5026 14.1363 17.7226 14.3311C17.5046 14.3856 17.2881 14.4489 17.0674 14.4889C16.8483 14.5287 16.6243 14.5414 16.4034 14.5721C16.3387 14.5811 16.277 14.6108 16.2139 14.6311C16.2401 14.6904 16.2498 14.7718 16.2951 14.8057C16.9069 15.2644 17.3837 15.8502 17.881 16.4226C18.1759 16.7621 18.5354 17.0632 18.913 17.309C19.5419 17.7182 20.0806 18.1993 20.5265 18.8067C20.9716 19.4132 21.5293 19.9044 22.2436 20.1945C22.6926 20.377 22.8017 20.7287 22.5393 21.1351C22.4477 21.277 22.3312 21.4104 22.2016 21.5184C21.9886 21.696 21.7516 21.8445 21.5322 22.0149C21.3031 22.1929 21.0489 22.2497 20.7654 22.2189C20.0733 22.1438 19.409 21.963 18.8345 21.568C18.5587 21.3783 18.3369 21.1001 18.1185 20.8386C17.33 19.8948 16.5518 18.9422 15.7729 17.9903C15.552 17.7204 15.344 17.4399 15.1245 17.1689C15.089 17.125 15.0241 17.1049 14.9727 17.0738C14.9573 17.1264 14.9347 17.1782 14.9282 17.2319C14.9204 17.2959 14.9264 17.3616 14.9264 17.4265C14.9157 17.4277 14.9051 17.4289 14.8944 17.4301Z" fill="#000"/>
</svg>
